<?xml version="1.0" encoding="iso-8859-1"?>
<!-- Generator: Adobe Illustrator 19.0.0, SVG Export Plug-In . SVG Version: 6.00 Build 0)  -->
<svg version="1.1" id="Layer_1" xmlns="http://www.w3.org/2000/svg" xmlns:xlink="http://www.w3.org/1999/xlink" x="0px" y="0px"
	 viewBox="0 0 512.001 512.001" style="enable-background:new 0 0 512.001 512.001;" xml:space="preserve">
<path style="fill:#FF8163;" d="M368.479,102.654c-1.25,0-2.45-0.496-3.334-1.38l-32.535-32.548
	c-4.599-4.595-7.131-10.709-7.131-17.211s2.533-12.614,7.132-17.212c4.599-4.598,10.714-7.129,17.219-7.129
	c6.506,0,12.62,2.532,17.219,7.129l1.429,1.429l1.429-1.429c4.599-4.598,10.713-7.129,17.219-7.129s12.62,2.532,17.22,7.129
	c4.599,4.597,7.132,10.71,7.132,17.212s-2.534,12.615-7.132,17.212l-32.534,32.546C370.929,102.158,369.729,102.654,368.479,102.654
	z"/>
<g>
	<path style="fill:#FFCCCC;" d="M144.027,177.633c-1.037,0-2.031-0.412-2.765-1.145l-26.984-26.996
		c-3.815-3.812-5.915-8.883-5.915-14.275c0-5.394,2.1-10.463,5.916-14.276c3.814-3.813,8.886-5.913,14.282-5.913
		c5.395,0,10.468,2.1,14.282,5.913l1.186,1.185l1.187-1.185c3.814-3.813,8.886-5.913,14.282-5.913c5.396,0,10.468,2.1,14.283,5.913
		c3.815,3.813,5.916,8.883,5.916,14.276c0,5.393-2.101,10.463-5.916,14.275l-26.984,26.995
		C146.061,177.221,145.065,177.633,144.027,177.633z"/>
	<path style="fill:#FFCCCC;" d="M383.588,304.065c-1.037,0-2.031-0.412-2.765-1.145l-26.985-26.996
		c-3.815-3.812-5.915-8.883-5.915-14.275c0-5.394,2.1-10.463,5.916-14.276c3.814-3.814,8.886-5.913,14.282-5.913
		c5.395,0,10.468,2.1,14.282,5.913l1.186,1.185l1.187-1.185c3.814-3.814,8.886-5.913,14.282-5.913c5.396,0,10.468,2.1,14.283,5.913
		c3.815,3.813,5.916,8.883,5.916,14.276c0,5.393-2.101,10.463-5.916,14.275l-26.984,26.995
		C385.622,303.654,384.626,304.065,383.588,304.065z"/>
</g>
<g style="opacity:0.1;">
	<path d="M354.3,68.725c-4.599-4.595-7.131-10.709-7.131-17.211s2.533-12.614,7.132-17.212c1.893-1.892,4.046-3.428,6.374-4.588
		c-3.329-1.658-7.019-2.541-10.846-2.541c-6.506,0-12.62,2.532-17.219,7.129c-4.6,4.597-7.132,10.71-7.132,17.212
		s2.533,12.615,7.131,17.211l32.535,32.548c0.885,0.884,2.085,1.38,3.334,1.38c1.251,0,2.451-0.496,3.334-1.38l7.511-7.514
		L354.3,68.725z"/>
</g>
<g style="opacity:0.1;">
	<path d="M135.969,149.491c-3.815-3.812-5.915-8.883-5.915-14.275c0-5.394,2.1-10.463,5.916-14.276
		c1.053-1.053,2.21-1.961,3.436-2.745c-3.212-2.053-6.94-3.168-10.846-3.168c-5.396,0-10.468,2.1-14.282,5.913
		c-3.816,3.813-5.916,8.883-5.916,14.276c0,5.393,2.1,10.463,5.915,14.275l26.984,26.996c0.734,0.734,1.728,1.145,2.765,1.145
		c1.038,0,2.033-0.412,2.766-1.145l8.08-8.083L135.969,149.491z"/>
</g>
<g style="opacity:0.1;">
	<path d="M375.531,275.924c-3.815-3.812-5.915-8.883-5.915-14.275c0-5.394,2.1-10.463,5.916-14.276
		c1.053-1.053,2.21-1.961,3.436-2.745c-3.212-2.053-6.941-3.168-10.846-3.168c-5.396,0-10.468,2.1-14.282,5.913
		c-3.816,3.813-5.916,8.883-5.916,14.276c0,5.393,2.1,10.463,5.915,14.275l26.985,26.996c0.733,0.734,1.728,1.145,2.765,1.145
		c1.038,0,2.033-0.412,2.766-1.145l8.08-8.083L375.531,275.924z"/>
</g>
<g>
	<path style="fill:#A5B8C4;" d="M274.034,86.613c0,4.554-3.676,8.23-8.209,8.23h-19.704c-4.535,0-8.21-3.676-8.21-8.23V49.005
		c0-4.554,3.676-8.247,8.21-8.247h19.704c4.534,0,8.209,3.693,8.209,8.247V86.613z"/>
	<path style="fill:#A5B8C4;" d="M198.267,498.643c0,3.049-2.463,5.52-5.497,5.52H98.242c-3.034,0-5.496-2.471-5.496-5.52v-15.459
		c0-3.049,2.461-5.52,5.496-5.52h94.529c3.034,0,5.497,2.471,5.497,5.52v15.459H198.267z"/>
	<path style="fill:#A5B8C4;" d="M419.199,498.643c0,3.049-2.459,5.52-5.495,5.52h-94.529c-3.035,0-5.497-2.471-5.497-5.52v-15.459
		c0-3.049,2.461-5.52,5.497-5.52h94.529c3.035,0,5.495,2.471,5.495,5.52V498.643z"/>
	<path style="fill:#A5B8C4;" d="M329.962,341.751c-25.121-72.723-46.74-153.999-62.836-236.326h-22.248
		c-16.092,82.326-37.714,163.602-62.835,236.326h47.835v-38.732c0-15.212,12.024-27.547,27.167-27.547
		c15.145,0,27.167,12.334,27.167,27.547v38.732H329.962z"/>
	<path style="fill:#A5B8C4;" d="M340.917,372.322h-169.83c-14.276,38.425-29.388,73.78-45.03,105.341h46.779
		c3.667-17.185,12.535-32.974,25.606-45.061c15.755-14.569,36.197-22.67,57.559-22.67c21.363,0,41.804,7.981,57.558,22.548
		c13.071,12.085,21.937,27.969,25.604,45.184h46.782C370.304,446.101,355.193,410.746,340.917,372.322z"/>
</g>
<path style="opacity:0.1;enable-background:new    ;" d="M244.88,105.425c-17.296,88.484-40.98,175.76-68.531,252.504
	c-15.805,44.024-32.715,84.269-50.292,119.735h21.49c17.577-35.465,34.488-75.711,50.292-119.735
	c27.551-76.744,51.234-164.02,68.531-252.504C266.37,105.425,244.88,105.425,244.88,105.425z"/>
<path style="opacity:0.1;enable-background:new    ;" d="M125.388,498.643v-15.459c0-3.049,2.461-5.52,5.496-5.52H98.242
	c-3.034,0-5.496,2.471-5.496,5.52v15.459c0,3.049,2.461,5.52,5.496,5.52h32.643C127.849,504.163,125.388,501.692,125.388,498.643z"
	/>
<path style="opacity:0.1;enable-background:new    ;" d="M346.322,498.643v-15.459c0-3.049,2.461-5.52,5.497-5.52h-32.643
	c-3.035,0-5.497,2.471-5.497,5.52v15.459c0,3.049,2.461,5.52,5.497,5.52h32.643C348.783,504.163,346.322,501.692,346.322,498.643z"
	/>
<g>
	<path style="fill:#A5B8C4;" d="M361.315,366.443c0,3.246-2.621,5.88-5.851,5.88h-198.98c-3.233,0-5.852-2.633-5.852-5.88V347.63
		c0-3.246,2.62-5.88,5.852-5.88h198.981c3.231,0,5.851,2.633,5.851,5.88v18.812H361.315z"/>
	<path style="fill:#A5B8C4;" d="M314.496,227.703c0,3.248-2.621,5.879-5.852,5.879H203.302c-3.233,0-5.854-2.631-5.854-5.879
		v-18.812c0-3.248,2.621-5.879,5.854-5.879h105.341c3.232,0,5.852,2.631,5.852,5.879V227.703z"/>
	<path style="fill:#A5B8C4;" d="M282.308,78.382c3.233,0,5.854,2.632,5.854,5.879v15.286c0,3.246-2.621,5.879-5.854,5.879h-52.67
		c-3.232,0-5.852-2.632-5.852-5.879V84.261c0-3.246,2.621-5.879,5.852-5.879H282.308z"/>
</g>
<path style="opacity:0.1;enable-background:new    ;" d="M245.552,99.546V84.261c0-3.246,2.621-5.879,5.852-5.879h-8.216h-13.55
	c-3.232,0-5.852,2.632-5.852,5.879v15.286c0,3.246,2.621,5.879,5.852,5.879h21.766C248.172,105.425,245.552,102.793,245.552,99.546z
	"/>
<path d="M359.603,106.816c2.371,2.37,5.522,3.675,8.874,3.675c3.354,0,6.508-1.306,8.877-3.677l32.532-32.544
	c6.08-6.078,9.429-14.159,9.429-22.755s-3.349-16.676-9.429-22.754c-6.079-6.077-14.161-9.424-22.76-9.424
	c-6.78,0-13.239,2.081-18.649,5.941c-5.409-3.86-11.869-5.941-18.649-5.941c-8.598,0-16.681,3.347-22.759,9.423
	c-6.08,6.077-9.429,14.158-9.429,22.755c0,8.597,3.349,16.678,9.426,22.751L359.603,106.816z M338.15,39.846
	c3.119-3.118,7.267-4.835,11.679-4.835c4.413,0,8.56,1.718,11.679,4.835l1.429,1.429c3.06,3.059,8.021,3.059,11.08,0l1.429-1.429
	c3.119-3.118,7.267-4.835,11.679-4.835c4.413,0,8.56,1.718,11.679,4.836c3.119,3.117,4.837,7.261,4.837,11.668
	s-1.718,8.552-4.838,11.672l-30.326,30.338l-30.329-30.342c-3.118-3.115-4.835-7.259-4.835-11.667S335.031,42.963,338.15,39.846z"/>
<path d="M135.72,182.029c2.219,2.219,5.169,3.441,8.307,3.441c3.096,0,6.125-1.256,8.309-3.442l26.981-26.993
	c5.297-5.292,8.214-12.332,8.214-19.819s-2.917-14.525-8.213-19.819c-5.296-5.292-12.335-8.207-19.823-8.207
	c-5.586,0-10.921,1.622-15.469,4.641c-4.547-3.02-9.883-4.641-15.468-4.641c-7.489,0-14.528,2.914-19.821,8.207
	c-5.297,5.292-8.214,12.332-8.214,19.82c0,7.489,2.916,14.526,8.21,19.815L135.72,182.029z M119.819,126.483
	c2.334-2.333,5.439-3.618,8.741-3.618c3.303,0,6.406,1.285,8.742,3.62l1.186,1.185c3.058,3.057,8.018,3.059,11.078,0.002l1.19-1.188
	c2.334-2.333,5.439-3.618,8.741-3.618c3.302,0,6.407,1.285,8.743,3.62c2.334,2.332,3.62,5.435,3.62,8.733s-1.285,6.4-3.622,8.735
	l-24.208,24.218l-24.211-24.221c-2.333-2.331-3.617-5.432-3.617-8.731C116.198,131.916,117.484,128.816,119.819,126.483z"/>
<path d="M399.056,233.624c-5.586,0-10.921,1.622-15.469,4.641c-4.547-3.02-9.883-4.641-15.468-4.641
	c-7.489,0-14.528,2.914-19.821,8.207c-5.297,5.292-8.214,12.332-8.214,19.82c0,7.489,2.917,14.526,8.21,19.815l26.986,26.997
	c2.219,2.219,5.169,3.441,8.307,3.441c3.096,0,6.125-1.256,8.309-3.442l26.981-26.993c5.297-5.292,8.214-12.332,8.214-19.819
	s-2.917-14.525-8.213-19.819C413.584,236.538,406.544,233.624,399.056,233.624z M407.797,270.384l-24.208,24.218l-24.211-24.221
	c-2.333-2.331-3.617-5.432-3.617-8.731c0-3.3,1.285-6.4,3.621-8.733c2.334-2.333,5.439-3.618,8.741-3.618s6.406,1.285,8.742,3.62
	l1.186,1.185c3.059,3.057,8.018,3.059,11.078,0.002l1.19-1.188c2.334-2.333,5.439-3.618,8.741-3.618c3.303,0,6.407,1.285,8.743,3.62
	c2.334,2.333,3.62,5.435,3.62,8.733C411.419,264.948,410.133,268.049,407.797,270.384z"/>
<path d="M413.705,469.827h-22.881c-13.319-27.257-26.247-57.295-38.587-89.668h3.227c7.547,0,13.688-6.153,13.688-13.716V347.63
	c0-7.563-6.14-13.716-13.688-13.716h-19.892c-10.104-29.619-19.624-60.616-28.426-92.496h1.498c7.548,0,13.689-6.152,13.689-13.715
	V208.89c0-7.563-6.141-13.715-13.689-13.715h-13.609c-6.682-26.964-12.828-54.361-18.362-81.914h5.634
	c7.548,0,13.69-6.153,13.69-13.715V84.261c0-7.563-6.141-13.715-13.69-13.715h-0.437V49.005c0-8.868-7.198-16.084-16.045-16.084
	h-2.016V7.837c0-4.328-3.509-7.837-7.837-7.837s-7.837,3.509-7.837,7.837v25.084h-2.016c-8.848,0-16.046,7.215-16.046,16.084v21.541
	h-0.437c-7.548,0-13.689,6.152-13.689,13.715v15.286c0,7.563,6.141,13.715,13.689,13.715h5.693
	c-5.533,27.552-11.678,54.949-18.361,81.914h-13.666c-7.548,0-13.69,6.152-13.69,13.715v18.812c0,7.563,6.142,13.715,13.69,13.715
	h1.556c-8.802,31.88-18.322,62.876-28.427,92.496h-19.948c-7.548,0-13.689,6.153-13.689,13.716v18.812
	c0,7.563,6.141,13.716,13.689,13.716h3.284c-12.34,32.371-25.268,62.409-38.588,89.668H98.242c-7.352,0-13.333,5.991-13.333,13.357
	v15.459c0,7.366,5.981,13.357,13.333,13.357h94.529c7.352,0,13.334-5.991,13.334-13.357v-15.459c0-7.366-5.982-13.357-13.334-13.357
	h-9.706c4.153-11.964,11.208-22.825,20.699-31.602c14.311-13.234,32.863-20.522,52.239-20.522c19.391,0,37.942,7.28,52.238,20.498
	c9.493,8.777,16.548,19.647,20.703,31.626h-9.765c-7.352,0-13.334,5.991-13.334,13.357v15.459c0,7.366,5.982,13.357,13.334,13.357
	h94.529c7.351,0,13.332-5.991,13.332-13.357v-15.459C427.036,475.818,421.056,469.827,413.705,469.827z M319.025,333.914h-26.453
	v-9.995h23.12C316.797,327.267,317.908,330.598,319.025,333.914z M310.62,308.245h-18.049v-5.227c0-2.14-0.2-4.232-0.561-6.267
	h15.002C308.205,300.601,309.408,304.432,310.62,308.245z M257.568,267.635c-11.106,0-21.014,5.262-27.431,13.443h-20.374
	c1.348-4.507,2.681-9.035,4.001-13.584h43.282c4.328,0,7.837-3.509,7.837-7.837s-3.509-7.837-7.837-7.837h-38.813
	c0.969-3.459,1.929-6.927,2.883-10.403h69.773c0.954,3.476,1.915,6.944,2.883,10.403h-5.379c-4.328,0-7.837,3.509-7.837,7.837
	s3.509,7.837,7.837,7.837h9.848c1.32,4.548,2.653,9.077,4.001,13.584h-17.243C278.582,272.897,268.674,267.635,257.568,267.635z
	 M276.898,303.018v30.896h-38.661v-30.896c0-10.868,8.672-19.71,19.331-19.71C268.227,283.308,276.898,292.15,276.898,303.018z
	 M231.622,97.588v-11.37h11.565c4.328,0,7.837-3.509,7.837-7.837c0-3.43-2.208-6.338-5.277-7.4V49.005
	c0-0.226,0.167-0.411,0.373-0.411h19.704c0.206,0,0.373,0.184,0.373,0.411v21.541h-1.038c-4.328,0-7.837,3.509-7.837,7.837
	s3.509,7.837,7.837,7.837h15.165v11.37H231.622z M271.306,163.091c0.654,2.877,1.314,5.749,1.981,8.618h-34.57
	c0.667-2.869,1.327-5.742,1.981-8.618H271.306z M244.187,147.417c2.479-11.35,4.856-22.741,7.131-34.156h9.366
	c2.275,11.416,4.654,22.807,7.131,34.156H244.187z M235.01,187.383h41.985c0.628,2.602,1.261,5.199,1.898,7.793h-45.781
	C233.749,192.581,234.382,189.983,235.01,187.383z M205.286,210.849H306.66v14.895H205.286V210.849z M204.992,296.751h18.133
	c-0.362,2.035-0.561,4.127-0.561,6.267v5.227h-21.18C202.596,304.432,203.798,300.601,204.992,296.751z M196.312,323.918h26.252
	v9.995h-29.585C194.097,330.598,195.207,327.267,196.312,323.918z M158.468,364.485v-14.898h195.01v14.898H158.468z M141.869,462.89
	h27.042c-0.843,2.279-1.597,4.592-2.261,6.937h-28.063C139.686,467.533,140.779,465.22,141.869,462.89z M190.43,485.5v10.826
	h-89.848V485.5H190.43z M176.442,447.216h-27.395c2.15-4.805,4.286-9.686,6.409-14.629h31.866
	C183.206,437.126,179.565,442.024,176.442,447.216z M220.474,402.286h28.984c-15.627,1.104-30.612,6.143-43.698,14.629H162.05
	c1.986-4.818,3.959-9.694,5.919-14.629h22.203c4.328,0,7.837-3.509,7.837-7.837c0-4.328-3.509-7.837-7.837-7.837h-16.096
	c0.817-2.14,1.631-4.292,2.444-6.453h158.962c0.812,2.16,1.627,4.313,2.444,6.453H220.474c-4.328,0-7.837,3.509-7.837,7.837
	C212.637,398.777,216.146,402.286,220.474,402.286z M306.271,416.914c-13.084-8.485-28.076-13.524-43.72-14.629h81.484
	c1.959,4.935,3.933,9.811,5.918,14.629H306.271z M324.7,432.588h31.846c5.536,12.887,11.164,25.311,16.869,37.239h-28.064
	C341.447,456.031,334.409,443.296,324.7,432.588z M411.362,496.327h-89.847V485.5h89.847V496.327z"/>
<path style="opacity:0.1;enable-background:new    ;" d="M172.409,366.443V347.63c0-3.246,2.62-5.88,5.852-5.88h-21.778
	c-3.233,0-5.852,2.633-5.852,5.88v18.812c0,3.246,2.62,5.88,5.852,5.88h21.778C175.028,372.322,172.409,369.69,172.409,366.443z"/>
<path style="opacity:0.1;enable-background:new    ;" d="M219.227,227.703v-18.812c0-3.248,2.621-5.879,5.854-5.879h-21.778
	c-3.233,0-5.854,2.631-5.854,5.879v18.812c0,3.248,2.621,5.879,5.854,5.879h21.778C221.847,233.581,219.227,230.951,219.227,227.703
	z"/>
<g>
</g>
<g>
</g>
<g>
</g>
<g>
</g>
<g>
</g>
<g>
</g>
<g>
</g>
<g>
</g>
<g>
</g>
<g>
</g>
<g>
</g>
<g>
</g>
<g>
</g>
<g>
</g>
<g>
</g>
</svg>
