<?xml version="1.0" encoding="utf-8"?>
<!-- Generator: Adobe Illustrator 24.1.0, SVG Export Plug-In . SVG Version: 6.00 Build 0)  -->
<svg version="1.1" id="Calque_1" xmlns="http://www.w3.org/2000/svg" xmlns:xlink="http://www.w3.org/1999/xlink" x="0px" y="0px"
	 viewBox="0 0 749.01 257.37" style="enable-background:new 0 0 749.01 257.37;" xml:space="preserve">
<style type="text/css">
	.st0{fill:#0D1030;}
</style>
<g>
	<path class="st0" d="M134.59,227.26c3.5-0.69,6.82-1.29,10.11-2c10.51-2.25,20.96-4.78,31.12-8.31c7.22-2.51,14.45-5.05,21.51-7.99
		c14.85-6.18,28.99-13.64,41.33-24.12c7.33-6.23,13.62-13.35,17.8-22.12c4.59-9.63,5.68-19.68,3.26-30.1
		c-2.68-11.57-9.32-20.41-18.69-27.4c-8.85-6.6-18.84-10.83-29.27-14.19c-12.39-3.99-25.11-6.57-37.93-8.57
		c-7.66-1.2-15.38-2.04-23.07-2.92c-7.2-0.83-14.42-1.55-21.64-2.19c-5.35-0.47-10.75-0.57-16.08-1.16
		c-5.28-0.58-10.51-1.53-15.75-2.42c-1.06-0.18-2.11-0.75-3.03-1.33c-1.8-1.14-2.23-3.14-1.23-5.04c1.13-2.15,2.94-3.61,5.02-4.73
		c5.35-2.86,11.16-4.22,17.08-5.2c1.38-0.23,2.77-0.48,4.16-0.72c0.01-0.13,0.02-0.27,0.03-0.4c-0.43-0.06-0.87-0.21-1.3-0.18
		c-8.01,0.55-15.97,1.42-23.45,4.66c-1.75,0.76-3.46,1.76-4.92,2.99c-5.56,4.66-4.46,10.9,0.38,15.2c3.21,2.84,7.26,3.97,11.22,5.23
		c12.04,3.83,24.39,6.42,36.68,9.29c11.19,2.61,22.32,5.61,33.35,8.86c9.77,2.88,19.29,6.54,28.39,11.19
		c6.75,3.45,13.18,7.38,18.62,12.77c2.15,2.14,3.9,4.57,4.8,7.48c1.93,6.27-0.26,11.78-5.94,15.86c-4.9,3.51-10.47,5.53-16.05,7.53
		c-9.91,3.56-20.16,5.85-30.52,7.5c-10.87,1.72-21.82,2.93-32.83,3.27c-9.28,0.28-18.56,0.78-27.83,0.69
		c-11.31-0.1-22.62-0.52-33.91-1.19c-7.22-0.43-14.43-1.36-21.6-2.41c-10.72-1.57-21.4-3.43-32.03-5.44
		c8.87,0.13,17.74,0.31,26.61,0.36c4.51,0.03,9.03-0.14,13.55-0.26c2.37-0.06,2.42-0.17,1.69-2.33c-2.45-7.24-3.94-14.7-4.63-22.29
		c-0.86-9.38-0.62-18.74,0.91-28.07c2.01-12.23,5.94-23.78,11.94-34.6c7.86-14.18,18.37-26.04,31.56-35.52
		c11.5-8.27,24.14-14.05,37.9-17.34c11.34-2.72,22.86-3.56,34.45-2.52c12.46,1.12,24.42,4.27,35.8,9.58
		c15,7.01,27.76,16.88,38.23,29.68c6.88,8.41,12.33,17.67,16.43,27.76c3.65,8.98,6.07,18.29,7.13,27.9
		c1.14,10.37,0.93,20.76-0.89,31.08c-2.62,14.89-8.08,28.61-16.46,41.2c-8.65,12.98-19.58,23.57-32.8,31.85
		c-10.06,6.3-20.88,10.83-32.42,13.48c-12.91,2.97-25.97,3.66-39.15,1.77c-5.79-0.83-11.47-2-17.03-3.78
		C135.03,227.53,134.91,227.44,134.59,227.26z"/>
</g>
<g>
	<path class="st0" d="M306.02,163.07c-3.31-3.51-4.96-8.46-4.96-14.85v-43.96c0-6.39,1.65-11.34,4.96-14.85
		c3.31-3.51,8.11-5.26,14.4-5.26c6.29,0,11.1,1.75,14.4,5.26c3.31,3.51,4.96,8.46,4.96,14.85v8.65h-12.43v-9.47
		c0-5.07-2.19-7.6-6.57-7.6c-4.38,0-6.57,2.53-6.57,7.6v45.71c0,4.99,2.19,7.48,6.57,7.48c4.38,0,6.57-2.49,6.57-7.48v-12.51h12.43
		v11.57c0,6.39-1.65,11.34-4.96,14.85c-3.31,3.51-8.11,5.26-14.4,5.26C314.13,168.33,309.33,166.58,306.02,163.07z"/>
	<path class="st0" d="M347.67,85.32h19.48c6.77,0,11.71,1.54,14.82,4.62c3.11,3.08,4.66,7.81,4.66,14.21v5.03
		c0,8.5-2.87,13.87-8.61,16.13v0.23c3.19,0.94,5.44,2.85,6.75,5.73c1.32,2.88,1.97,6.74,1.97,11.58v14.38
		c0,2.34,0.08,4.23,0.24,5.67c0.16,1.44,0.56,2.86,1.2,4.27h-13.39c-0.48-1.32-0.8-2.57-0.96-3.74c-0.16-1.17-0.24-3.27-0.24-6.31
		v-14.96c0-3.74-0.62-6.35-1.85-7.83c-1.24-1.48-3.37-2.22-6.39-2.22h-4.54v35.08h-13.15V85.32z M365.6,120.4
		c2.63,0,4.6-0.66,5.92-1.99c1.31-1.32,1.97-3.55,1.97-6.66v-6.31c0-2.96-0.54-5.1-1.61-6.43c-1.08-1.32-2.77-1.99-5.08-1.99h-5.98
		v23.38H365.6z"/>
	<path class="st0" d="M395.84,85.32h35.86v11.69h-22.71v21.63h18.05v11.69h-18.05v25.14h22.71v11.69h-35.86V85.32z"/>
	<path class="st0" d="M439.23,85.32h35.86v11.69h-22.71v21.63h18.05v11.69h-18.05v25.14h22.71v11.69h-35.86V85.32z"/>
	<path class="st0" d="M482.61,85.32h13.15v34.49l16.73-34.49h13.15l-15.66,30.05l15.9,51.79h-13.75l-11.12-36.48l-5.26,10.41v26.07
		h-13.15V85.32z"/>
	<path class="st0" d="M533.89,163.01c-3.27-3.55-4.9-8.63-4.9-15.26v-4.68h12.43v5.61c0,5.3,2.27,7.95,6.81,7.95
		c2.23,0,3.92-0.64,5.08-1.93c1.15-1.29,1.73-3.37,1.73-6.25c0-3.43-0.8-6.45-2.39-9.06c-1.59-2.61-4.54-5.75-8.84-9.41
		c-5.42-4.68-9.2-8.9-11.35-12.69c-2.15-3.78-3.23-8.05-3.23-12.8c0-6.47,1.67-11.48,5.02-15.02c3.35-3.55,8.21-5.32,14.58-5.32
		c6.29,0,11.06,1.77,14.28,5.32c3.23,3.55,4.84,8.63,4.84,15.26v3.39h-12.43v-4.21c0-2.81-0.56-4.85-1.67-6.14
		c-1.12-1.29-2.75-1.93-4.9-1.93c-4.38,0-6.57,2.61-6.57,7.83c0,2.96,0.82,5.73,2.45,8.3c1.63,2.57,4.6,5.69,8.91,9.35
		c5.5,4.68,9.28,8.93,11.35,12.74c2.07,3.82,3.11,8.3,3.11,13.45c0,6.7-1.69,11.85-5.08,15.43c-3.39,3.59-8.31,5.38-14.76,5.38
		C541.97,168.33,537.15,166.56,533.89,163.01z"/>
	<path class="st0" d="M575.72,154.77h12.67v12.39h-12.67V154.77z"/>
	<path class="st0" d="M609.54,85.32h17.81l13.62,81.84h-13.15l-2.39-16.25v0.23H610.5l-2.39,16.02h-12.19L609.54,85.32z
		 M623.89,140.04l-5.86-40.45h-0.24l-5.74,40.45H623.89z"/>
	<path class="st0" d="M647.31,85.32h19.36c6.53,0,11.43,1.72,14.7,5.14c3.27,3.43,4.9,8.46,4.9,15.08v8.07
		c0,6.63-1.63,11.65-4.9,15.08c-3.27,3.43-8.17,5.14-14.7,5.14h-6.21v33.32h-13.15V85.32z M666.67,122.15
		c2.15,0,3.77-0.58,4.84-1.75c1.08-1.17,1.61-3.16,1.61-5.96v-9.7c0-2.81-0.54-4.79-1.61-5.96c-1.08-1.17-2.69-1.75-4.84-1.75h-6.21
		v25.14H666.67z"/>
	<path class="st0" d="M693.44,85.32h19.36c6.53,0,11.43,1.72,14.7,5.14c3.27,3.43,4.9,8.46,4.9,15.08v8.07
		c0,6.63-1.63,11.65-4.9,15.08c-3.27,3.43-8.17,5.14-14.7,5.14h-6.21v33.32h-13.15V85.32z M712.81,122.15
		c2.15,0,3.77-0.58,4.84-1.75c1.08-1.17,1.61-3.16,1.61-5.96v-9.7c0-2.81-0.54-4.79-1.61-5.96c-1.08-1.17-2.69-1.75-4.84-1.75h-6.21
		v25.14H712.81z"/>
</g>
</svg>
