<svg width="100" height="100" viewBox="0 0 100 100" fill="none" xmlns="http://www.w3.org/2000/svg">
<path d="M48.89 65.61C48.89 64.059 37.81 62.46 31.181 61.509C22.941 60.32 13.701 58.989 6.51104 56.669C6.54104 56.909 6.58104 57.139 6.62104 57.379C13.921 59.609 22.971 61.099 31.391 62.319C35.971 62.979 43.301 63.629 46.711 64.508C46.051 64.768 51.081 65.598 44.521 67.788C40.111 69.258 32.481 70.668 32.481 76.548C32.481 83.528 41.601 87.238 59.831 90.768C61.381 91.069 62.931 91.338 64.461 91.569C59.93 93.14 55.07 94 50 94C28.21 94 10.13 78.33 6.62004 57.54C6.58004 57.3 6.54004 57 6.51004 57H6.50004C6.42004 56 6.35004 55.78 6.29004 55.24C22.06 60.92 51.08 61.03 51.08 65.679C51.08 70.059 36.86 70.019 36.86 76.579C36.86 83.859 54.47 87.899 68.38 89.979C67.63 90.338 66.87 90.659 66.09 90.958C51.93 88.778 34.67 84.488 34.67 76.548C34.67 72.178 39.6 70.328 43.57 68.828C46.06 67.89 48.89 66.83 48.89 65.61Z" fill="white"/>
<path d="M63.7901 60.37C65.9701 60.37 67.7301 61.05 67.7301 61.89C67.7301 62.731 65.9691 63.411 63.7901 63.411C62.8901 63.411 62.0401 63.291 61.3901 63.1L64.4011 61.59L60.1111 62.45C59.9211 62.28 59.8311 62.08 59.8311 61.889C59.8301 61.05 61.6101 60.37 63.7901 60.37Z" fill="white"/>
<path d="M72.08 60.24L68.95 58.679L70.7 60.429C70.139 60.469 69.559 60.49 68.95 60.49C65.599 60.49 62.88 59.679 62.88 58.679C62.88 57.669 65.6 56.849 68.95 56.849C72.309 56.849 75.03 57.669 75.03 58.679C75.03 59.34 73.85 59.92 72.08 60.24Z" fill="white"/>
<path d="M50 6C29.87 6 12.9 19.52 7.66 37.97C7.6 38.18 7.55 38.39 7.49 38.59C7.36 39.09 7.23 39.59 7.12 40.09C21.3 36.55 44.52 34.97 44.52 34.97C44.52 34.97 28.11 38.25 28.11 43.72C28.11 51.38 85 51.38 85 62.32C85 71.07 58.74 69.98 58.74 78.73C58.74 81.58 65.88 85.03 72.719 87.679C85.48 79.98 94 65.98 94 50C94 25.7 74.3 6 50 6ZM59.08 50.91C58.07 50.75 57.05 50.58 56.03 50.42C56.55 45.91 55.46 43.72 54.36 39.34C53.589 36.25 48.87 28.21 45.889 26.37C50.179 28.64 54.61 34.06 56.549 38.25C58.4 42.22 59.059 46.54 59.309 50.95C59.3 50.79 58.4 50.78 59.08 50.91ZM61.72 51.359C61.37 51.299 61.031 51.24 60.68 51.179C60.67 51.119 60.66 51.049 60.651 50.979C60.661 51.039 60.651 51.099 60.63 51.169C60.33 51.129 60.02 51.069 59.7 51.019C59.74 50.62 59.76 50.229 59.76 49.819C59.87 46.269 59.35 42.479 58.51 38.779C58.111 36.919 57.571 35.099 57.01 33.329C56.7 32.439 56.39 31.559 56.071 30.689C55.731 29.849 55.39 29.009 55.001 28.219C54.571 27.309 54.121 26.419 53.671 25.579C53.621 25.589 53.591 25.589 53.541 25.589C52.961 25.589 52.401 25.309 52.041 24.789L47.471 18.039C47.021 17.389 47.072 16.559 47.492 15.959C46.982 15.249 46.521 14.619 46.122 14.089C45.351 13.059 44.812 12.369 44.612 12.109C44.932 12.439 46.092 13.709 47.722 15.709C47.792 15.639 47.872 15.579 47.952 15.519C48.262 15.319 48.622 15.219 48.972 15.219C49.552 15.219 50.122 15.489 50.472 15.999L55.042 22.759C55.602 23.589 55.392 24.709 54.562 25.269C54.533 25.289 54.512 25.319 54.472 25.329C54.952 26.129 55.392 26.949 55.832 27.809C56.252 28.619 56.612 29.469 56.972 30.349C57.302 31.209 57.613 32.099 57.943 32.989C58.562 34.799 59.123 36.659 59.562 38.539C59.922 39.939 60.153 41.369 60.342 42.779C60.432 40.979 60.632 39.199 60.863 37.439C61.022 36.509 61.173 35.579 61.323 34.659C61.522 33.739 61.722 32.829 61.972 31.959C62.653 29.619 63.483 27.449 64.323 25.489C63.613 25.129 63.333 24.279 63.682 23.579L66.512 17.769C66.762 17.259 67.283 16.969 67.802 16.969C68.022 16.969 68.233 17.009 68.443 17.109C68.443 17.109 68.453 17.109 68.453 17.119C69.343 15.529 69.963 14.559 70.102 14.339C70.012 14.519 69.592 15.339 68.953 16.659C68.863 16.849 68.763 17.039 68.653 17.249C69.203 17.649 69.403 18.389 69.092 19.039L66.262 24.829C66.012 25.339 65.533 25.629 65.002 25.639C64.222 27.649 63.462 29.849 62.872 32.199C62.622 33.059 62.452 33.939 62.262 34.829C62.132 35.739 61.992 36.669 61.842 37.599C61.622 39.449 61.432 41.339 61.392 43.239C61.29 45.98 61.37 48.73 61.72 51.359ZM65.61 39.04C63.45 42.98 64.389 47.5 64.16 51.779C63.48 51.66 62.78 51.54 62.08 51.42C62.3 46.88 61.29 42.4 63.85 38.3C65.781 35.22 69.321 33.03 72.96 32.78C69.96 33.99 67.18 36.18 65.61 39.04Z" fill="white"/>
<path d="M59.3099 50.95C59.2309 50.94 59.1609 50.93 59.0809 50.91C58.3999 50.78 59.2999 50.79 59.3099 50.95Z" fill="white"/>
<path d="M18.26 36.06C14.13 36.67 10.63 37.31 7.65999 37.97C7.59999 38.18 7.54999 38.39 7.48999 38.59C18.4 36 33.29 34.63 41.2 34.04C41.2 34.04 30.28 34.28 18.26 36.06Z" fill="white"/>
</svg>
