<svg height='100px' width='100px'  fill="#0c0f31" xmlns="http://www.w3.org/2000/svg" xmlns:xlink="http://www.w3.org/1999/xlink" version="1.1" x="0px" y="0px" viewBox="0 0 100 100" enable-background="new 0 0 100 100" xml:space="preserve"><path d="M48.89,65.61c0-1.551-11.08-3.15-17.709-4.101c-8.24-1.189-17.48-2.52-24.67-4.84c0.03,0.24,0.07,0.47,0.11,0.71  c7.3,2.23,16.35,3.72,24.77,4.94c4.58,0.66,11.91,1.31,15.32,2.189c-0.66,0.26,4.37,1.09-2.19,3.28  c-4.41,1.47-12.04,2.88-12.04,8.76c0,6.98,9.12,10.69,27.35,14.22c1.55,0.301,3.1,0.57,4.63,0.801C59.93,93.14,55.07,94,50,94  C28.21,94,10.13,78.33,6.62,57.54C6.58,57.3,6.54,57,6.51,57H6.5c-0.08-1-0.15-1.22-0.21-1.76c15.77,5.68,44.79,5.79,44.79,10.439  c0,4.38-14.22,4.34-14.22,10.9c0,7.28,17.61,11.32,31.52,13.4c-0.75,0.359-1.51,0.68-2.29,0.979c-14.16-2.18-31.42-6.47-31.42-14.41  c0-4.37,4.93-6.22,8.9-7.72C46.06,67.89,48.89,66.83,48.89,65.61z"></path><path d="M63.79,60.37c2.18,0,3.94,0.68,3.94,1.52c0,0.841-1.761,1.521-3.94,1.521c-0.9,0-1.75-0.12-2.4-0.311l3.011-1.51l-4.29,0.86  c-0.19-0.17-0.28-0.37-0.28-0.561C59.83,61.05,61.61,60.37,63.79,60.37z"></path><path d="M72.08,60.24l-3.13-1.561l1.75,1.75c-0.561,0.04-1.141,0.061-1.75,0.061c-3.351,0-6.07-0.811-6.07-1.811  c0-1.01,2.72-1.83,6.07-1.83c3.359,0,6.08,0.82,6.08,1.83C75.03,59.34,73.85,59.92,72.08,60.24z"></path><path d="M50,6C29.87,6,12.9,19.52,7.66,37.97c-0.06,0.21-0.11,0.42-0.17,0.62c-0.13,0.5-0.26,1-0.37,1.5  c14.18-3.54,37.4-5.12,37.4-5.12s-16.41,3.28-16.41,8.75c0,7.66,56.89,7.66,56.89,18.6c0,8.75-26.26,7.66-26.26,16.41  c0,2.85,7.14,6.3,13.979,8.949C85.48,79.98,94,65.98,94,50C94,25.7,74.3,6,50,6z M59.08,50.91c-1.01-0.16-2.03-0.33-3.05-0.49  c0.52-4.51-0.57-6.7-1.67-11.08c-0.771-3.09-5.49-11.13-8.471-12.97c4.29,2.27,8.721,7.69,10.66,11.88  c1.851,3.97,2.51,8.29,2.76,12.7C59.3,50.79,58.4,50.78,59.08,50.91z M61.72,51.359c-0.35-0.06-0.689-0.119-1.04-0.18  c-0.01-0.06-0.02-0.13-0.029-0.2c0.01,0.06,0,0.12-0.021,0.19c-0.3-0.04-0.61-0.1-0.93-0.15c0.04-0.399,0.06-0.79,0.06-1.2  c0.11-3.55-0.41-7.34-1.25-11.04c-0.399-1.86-0.939-3.68-1.5-5.45c-0.31-0.89-0.62-1.77-0.939-2.64c-0.34-0.84-0.681-1.68-1.07-2.47  c-0.43-0.91-0.88-1.8-1.33-2.64c-0.05,0.01-0.08,0.01-0.13,0.01c-0.58,0-1.14-0.28-1.5-0.8l-4.57-6.75  c-0.45-0.65-0.399-1.48,0.021-2.08c-0.51-0.71-0.971-1.34-1.37-1.87c-0.771-1.03-1.31-1.72-1.51-1.98c0.32,0.33,1.48,1.6,3.11,3.6  c0.07-0.07,0.15-0.13,0.23-0.19c0.31-0.2,0.67-0.3,1.02-0.3c0.58,0,1.15,0.27,1.5,0.78l4.57,6.76c0.56,0.83,0.35,1.95-0.48,2.51  c-0.029,0.02-0.05,0.05-0.09,0.06c0.48,0.8,0.92,1.62,1.36,2.48c0.42,0.81,0.78,1.66,1.14,2.54c0.33,0.86,0.641,1.75,0.971,2.64  c0.619,1.81,1.18,3.67,1.619,5.55c0.36,1.4,0.591,2.83,0.78,4.24c0.09-1.8,0.29-3.58,0.521-5.34c0.159-0.93,0.31-1.86,0.46-2.78  c0.199-0.92,0.399-1.83,0.649-2.7c0.681-2.34,1.511-4.51,2.351-6.47c-0.71-0.36-0.99-1.21-0.641-1.91l2.83-5.81  c0.25-0.51,0.771-0.8,1.29-0.8c0.22,0,0.431,0.04,0.641,0.14c0,0,0.01,0,0.01,0.01c0.89-1.59,1.51-2.56,1.649-2.78  c-0.09,0.18-0.51,1-1.149,2.32c-0.09,0.19-0.19,0.38-0.3,0.59c0.55,0.4,0.75,1.14,0.439,1.79l-2.83,5.79  c-0.25,0.51-0.729,0.8-1.26,0.81c-0.78,2.01-1.54,4.21-2.13,6.56c-0.25,0.86-0.42,1.74-0.61,2.63c-0.13,0.91-0.27,1.84-0.42,2.77  c-0.22,1.85-0.41,3.74-0.45,5.64C61.29,45.98,61.37,48.73,61.72,51.359z M65.61,39.04c-2.16,3.94-1.221,8.46-1.45,12.739  c-0.68-0.119-1.38-0.239-2.08-0.359c0.22-4.54-0.79-9.02,1.77-13.12c1.931-3.08,5.471-5.27,9.11-5.52  C69.96,33.99,67.18,36.18,65.61,39.04z"></path><path fill="#0c0f31" d="M59.31,50.95c-0.079-0.01-0.149-0.02-0.229-0.04C58.4,50.78,59.3,50.79,59.31,50.95z"></path><path fill="#0c0f31" d="M18.26,36.06c-4.13,0.61-7.63,1.25-10.6,1.91c-0.06,0.21-0.11,0.42-0.17,0.62  C18.4,36,33.29,34.63,41.2,34.04C41.2,34.04,30.28,34.28,18.26,36.06z"></path></svg>